<?xml version="1.0" encoding="UTF-8"?>
<svg xmlns="http://www.w3.org/2000/svg" version="1.1" viewBox="0 0 849.095 431.623">
  <!-- Generator: Adobe Illustrator 30.2.1, SVG Export Plug-In . SVG Version: 2.1.1 Build 1)  -->
  <defs>
    <style>
      .st0 {
        font-family: Lato-Regular, Lato;
        font-size: 27px;
      }

      .st0, .st1, .st2 {
        fill: #fff;
      }

      .st1 {
        font-family: Klarissa, Klarissa;
        font-size: 257.242px;
      }

      .st3 {
        fill: #cfd1d2;
      }

      .st4 {
        display: none;
      }
    </style>
  </defs>
  <g id="Layer_1">
    <text/>
  </g>
  <g id="Layer_2" class="st4">
    <path class="st3" d="M190.017,226.13c-.266-.369-6.56-8.954-16.008-9.017-2.486-2.487-5.766-4.134-9.541-4.781-1.287-.22-2.598-.322-3.895-.303-6.601.099-12.549,3.314-15.783,8.366-1.221-.631-2.613-.962-4.052-.94-.963.015-1.919.183-2.845.502-2.572.885-4.726,2.882-5.91,5.478-1.313,2.877-1.329,6.211-.046,9.389,1.83,4.533,6.533,7.411,11.981,7.328,1.271-.019,2.555-.198,3.816-.535,1.529-.408,2.891-.99,3.903-1.493,1.767,2.245,4.346,3.809,7.446,4.481,1.201.26,2.435.383,3.669.364,7.369-.11,14.259-5.35,15.685-11.927.005-.021.009-.044.015-.066.893-.808,4.25-3.582,8.3-3.644,1.045-.015,2.48.558,3.361-.917.427-.713.389-1.611-.098-2.285ZM186.722,227.253c-5.678.085-9.963,4.632-9.963,4.632-1.73,6.867-7.442,10.905-14.036,11.004-.777.013-1.564-.041-2.354-.163,3.947.303,8.197-.913,10.463-3.662,4.277-5.189,2.586-11.51-.892-14.372-4.582-3.77-10.873-3.071-14.026.763-1.512,1.836-2.216,4.15-1.982,6.516.035.392.383.678.773.638.389-.038.676-.385.636-.774-.194-1.988.489-3.856,1.943-5.229,6.392-6.029,18.706,3.624,11.945,11.83-5.011,6.082-14.178,4.148-16.907-1.07-.066.043-2.293,1.488-5.122,2.242-1.118.298-2.229.449-3.311.465-4.512.068-8.482-2.216-10.02-6.026-.223-.552-.394-1.098-.521-1.636-.292-1.634-.293-3.034-.085-4.225.285-1.371.871-2.605,1.67-3.626.924-1.056,2.075-1.699,3.147-2.016,3.495-1.032,7.032.261,8.339,3.364,1.06,2.517-.123,5.427-2.639,6.488-1.952.821-4.212-.098-5.035-2.051-.127-.301-.473-.442-.774-.315-.301.126-.443.473-.316.774,1.076,2.554,4.03,4.015,7.493,2.86,3.809-1.27,4.736-6.232,3.424-9.349-.345-.817-1.085-1.839-1.652-2.417,2.818-6.01,9.196-8.536,16.463-7.625.244.032.49.066.735.108,3.881.665,6.898,2.436,9.017,4.833.19-.011.379-.018.568-.02,8.661-.131,14.629,8.152,14.629,8.152-.547-.074-1.082-.101-1.607-.094Z"/>
  </g>
  <g id="Layer_4_copy">
    <text class="st1" transform="translate(2 341.02)"><tspan x="0" y="0">nrvana</tspan></text>
    <path class="st2" d="M370.46,97.108c27.748,25.065,25.867,106.403,110.066,80.468,36.434,30.567,105.373,30.789,131.797-13.418,3.613,3.257,7.828,5.852,12.461,7.661,5.629,2.165,11.48,3.268,17.449,3.268,19.848,0,37.994-12.427,45.165-30.934,10.857-28.136-1.582-59.624-27.849-72.978-2.973-36.217-33.361-64.799-70.297-64.799-15.043,0-29.486,4.619-41.768,13.318-9.137,6.486-16.453,14.766-21.536,24.311-28.929-14.893-70.185-3.917-88.536,29.754-10.122,18.581-22.565,20.706-37.32,14.255-14.097-6.166-47.898-7.399-29.63,9.092ZM375.648,91.047c10.3-.404,19.921,3.168,26.669,6.266,20.205,9.273,36.301-7.471,42.827-19.289,17.922-32.437,62.407-37.234,84.856-21.243,20.633,13.34,29.291,44.393,18.651,64.91-9.376,18.097-31.713,25.187-49.808,15.815-14.253-7.38-19.848-24.985-12.46-39.252,2.817-5.406,7.56-9.414,13.379-11.266,5.819-1.849,11.998-1.317,17.421,1.486,4.231,2.202,7.36,5.907,8.808,10.44,1.437,4.554,1.025,9.379-1.158,13.618-1.704,3.282-4.576,5.704-8.101,6.815-3.519,1.119-7.266.805-10.562-.902-1.069-.554-2.405-.136-2.973.944-.551,1.097-.128,2.416.958,2.97,4.32,2.252,9.27,2.669,13.913,1.205,4.649-1.487,8.429-4.68,10.684-9.014,2.717-5.275,3.241-11.302,1.448-16.97-1.804-5.66-5.701-10.283-10.985-13.02-6.464-3.346-13.847-3.989-20.795-1.782-6.937,2.205-12.605,6.982-15.946,13.454-8.518,16.419-2.082,36.679,14.342,45.204,9.81,5.066,21.029,6.03,31.541,2.681,10.539-3.335,19.125-10.584,24.213-20.397,12.516-24.127,4.532-58.326-19.341-74.514,10.288-20.197,31.841-33.999,56.021-33.999,33.339,0,60.414,26.438,61.622,59.479-44.268-12.527-62.045,28.069-62.045,28.069,16.97-24.035,43.895-28.247,60.531-21.641,24.208,9.629,37.125,34.756,27.743,59.05-7.455,19.214-29.102,28.804-48.327,21.355-16.453-6.355-21.04-23.718-15.762-37.328,4.61-11.901,16.937-18.557,28.807-13.967,9.298,3.594,13.914,14.062,10.323,23.351-.423,1.136.145,2.413,1.281,2.842,1.113.451,2.41-.114,2.834-1.255,4.493-11.55-1.286-24.579-12.845-29.057-14.141-5.473-29.848,1.712-35.599,15.748-4.499,10.954-3.881,25.126-3.897,25.107-13.212,34.391-34.837,42.024-70.921,42.024-31.713,0-51.578-23.735-51.578-23.735,0,0-37.743,16.074-60.303-4.014-22.092-19.668-26.067-55.35-45.465-70.188Z"/>
    <text class="st0" transform="translate(269.479 379.92)"><tspan x="0" y="0">using the technosphere to improve the biosphere</tspan></text>
  </g>
</svg>